<svg width="19" height="26" viewBox="0 0 19 26" fill="none" xmlns="http://www.w3.org/2000/svg">
<path id="Vector" d="M9.5 26C9.5 26 19 16.7603 19 9.75C19 7.16414 17.9991 4.68419 16.2175 2.85571C14.4359 1.02723 12.0196 0 9.5 0C6.98044 0 4.56408 1.02723 2.78249 2.85571C1.00089 4.68419 3.75443e-08 7.16414 0 9.75C0 16.7603 9.5 26 9.5 26ZM9.5 14.625C8.24022 14.625 7.03204 14.1114 6.14124 13.1971C5.25045 12.2829 4.75 11.0429 4.75 9.75C4.75 8.45707 5.25045 7.21709 6.14124 6.30285C7.03204 5.38861 8.24022 4.875 9.5 4.875C10.7598 4.875 11.968 5.38861 12.8588 6.30285C13.7496 7.21709 14.25 8.45707 14.25 9.75C14.25 11.0429 13.7496 12.2829 12.8588 13.1971C11.968 14.1114 10.7598 14.625 9.5 14.625Z" fill="#4B4B4B"/>
</svg>
