<svg width="22" height="16" viewBox="0 0 22 16" fill="none" xmlns="http://www.w3.org/2000/svg">
<path id="Vector" d="M0.06875 2.07333C0.207375 1.48432 0.548151 0.958417 1.03527 0.581744C1.52238 0.205072 2.12697 -4.06592e-05 2.75 6.04552e-09H19.25C19.873 -4.06592e-05 20.4776 0.205072 20.9647 0.581744C21.4518 0.958417 21.7926 1.48432 21.9312 2.07333L11 8.552L0.06875 2.07333ZM0 3.596V13.068L7.97913 8.324L0 3.596ZM9.29638 9.10667L0.262625 14.476C0.485824 14.9324 0.838099 15.3179 1.27845 15.5877C1.7188 15.8575 2.22912 16.0005 2.75 16H19.25C19.7708 16.0001 20.2809 15.8568 20.721 15.5868C21.1611 15.3168 21.5131 14.9311 21.736 14.4747L12.7022 9.10533L11 10.1147L9.29638 9.10667ZM14.0209 8.32533L22 13.068V3.596L14.0209 8.324V8.32533Z" fill="#4B4B4B"/>
</svg>
